<?xml version="1.0" encoding="utf-8"?>
<!-- Generator: Adobe Illustrator 16.0.4, SVG Export Plug-In . SVG Version: 6.00 Build 0)  -->
<!DOCTYPE svg PUBLIC "-//W3C//DTD SVG 1.1//EN" "http://www.w3.org/Graphics/SVG/1.1/DTD/svg11.dtd">
<svg version="1.1" id="Layer_1" xmlns="http://www.w3.org/2000/svg" xmlns:xlink="http://www.w3.org/1999/xlink" x="0px" y="0px"
	 width="512px" height="512px" viewBox="0 0 512 512" enable-background="new 0 0 512 512" xml:space="preserve">
<path fill="#FAFAFA" d="M501.216,103.899c-18.044,8.003-37.437,13.412-57.788,15.843c20.771-12.453,36.729-32.17,44.239-55.667
	c-19.442,11.532-40.976,19.905-63.896,24.417c-18.354-19.555-44.505-31.773-73.442-31.773c-55.565,0-100.619,45.049-100.619,100.615
	c0,7.886,0.89,15.565,2.605,22.93C168.692,176.067,94.552,136.01,44.927,75.135c-8.662,14.86-13.624,32.144-13.624,50.584
	c0,34.909,17.763,65.706,44.762,83.75c-16.494-0.523-32.009-5.049-45.574-12.585c-0.009,0.42-0.009,0.841-0.009,1.266
	c0,48.75,34.684,89.415,80.711,98.661c-8.442,2.299-17.332,3.529-26.508,3.529c-6.483,0-12.786-0.632-18.931-1.805
	c12.804,39.972,49.963,69.064,93.993,69.874c-34.436,26.987-77.82,43.073-124.962,43.073c-8.122,0-16.131-0.479-24.002-1.408
	c44.528,28.55,97.417,45.209,154.238,45.209c185.072,0,286.278-153.319,286.278-286.282c0-4.362-0.098-8.701-0.292-13.018
	C470.669,141.798,487.727,124.077,501.216,103.899z"/>
</svg>
